<mxfile host="app.diagrams.net" agent="Mozilla/5.0 (Windows NT 10.0; Win64; x64) AppleWebKit/537.36 (KHTML, like Gecko) Chrome/134.0.0.0 Safari/537.36" version="26.1.1">
  <diagram name="Page-1" id="G3L6k3aGVFqRaw2eXiZB">
    <mxGraphModel dx="882" dy="496" grid="1" gridSize="10" guides="1" tooltips="1" connect="1" arrows="1" fold="1" page="1" pageScale="1" pageWidth="827" pageHeight="1169" math="0" shadow="0">
      <root>
        <mxCell id="0" />
        <mxCell id="1" parent="0" />
        <mxCell id="UDQxO6hxX1jXAXQNm1rs-3" value="«component»&lt;br&gt;&lt;b&gt;Prompt processor&lt;/b&gt;" style="html=1;dropTarget=0;whiteSpace=wrap;" vertex="1" parent="1">
          <mxGeometry x="80" y="225" width="180" height="90" as="geometry" />
        </mxCell>
        <mxCell id="UDQxO6hxX1jXAXQNm1rs-4" value="" style="shape=module;jettyWidth=8;jettyHeight=4;" vertex="1" parent="UDQxO6hxX1jXAXQNm1rs-3">
          <mxGeometry x="1" width="20" height="20" relative="1" as="geometry">
            <mxPoint x="-27" y="7" as="offset" />
          </mxGeometry>
        </mxCell>
        <mxCell id="UDQxO6hxX1jXAXQNm1rs-5" value="«component»&lt;br&gt;&lt;b&gt;API Integration&lt;/b&gt;" style="html=1;dropTarget=0;whiteSpace=wrap;" vertex="1" parent="1">
          <mxGeometry x="536" y="227" width="180" height="90" as="geometry" />
        </mxCell>
        <mxCell id="UDQxO6hxX1jXAXQNm1rs-6" value="" style="shape=module;jettyWidth=8;jettyHeight=4;" vertex="1" parent="UDQxO6hxX1jXAXQNm1rs-5">
          <mxGeometry x="1" width="20" height="20" relative="1" as="geometry">
            <mxPoint x="-27" y="7" as="offset" />
          </mxGeometry>
        </mxCell>
        <mxCell id="UDQxO6hxX1jXAXQNm1rs-7" value="«component»&lt;br&gt;&lt;b&gt;Code generation&lt;/b&gt;" style="html=1;dropTarget=0;whiteSpace=wrap;" vertex="1" parent="1">
          <mxGeometry x="535" y="400" width="180" height="90" as="geometry" />
        </mxCell>
        <mxCell id="UDQxO6hxX1jXAXQNm1rs-8" value="" style="shape=module;jettyWidth=8;jettyHeight=4;" vertex="1" parent="UDQxO6hxX1jXAXQNm1rs-7">
          <mxGeometry x="1" width="20" height="20" relative="1" as="geometry">
            <mxPoint x="-27" y="7" as="offset" />
          </mxGeometry>
        </mxCell>
        <mxCell id="UDQxO6hxX1jXAXQNm1rs-9" value="«component»&lt;br&gt;&lt;b&gt;Output handler&lt;/b&gt;&lt;span style=&quot;color: rgba(0, 0, 0, 0); font-family: monospace; font-size: 0px; text-align: start; text-wrap-mode: nowrap;&quot;&gt;%3CmxGraphModel%3E%3Croot%3E%3CmxCell%20id%3D%220%22%2F%3E%3CmxCell%20id%3D%221%22%20parent%3D%220%22%2F%3E%3CmxCell%20id%3D%222%22%20value%3D%22%C2%ABcomponent%C2%BB%26lt%3Bbr%26gt%3B%26lt%3Bb%26gt%3BAPI%20Integration%26lt%3B%2Fb%26gt%3B%22%20style%3D%22html%3D1%3BdropTarget%3D0%3BwhiteSpace%3Dwrap%3B%22%20vertex%3D%221%22%20parent%3D%221%22%3E%3CmxGeometry%20x%3D%22360%22%20y%3D%22140%22%20width%3D%22180%22%20height%3D%2290%22%20as%3D%22geometry%22%2F%3E%3C%2FmxCell%3E%3CmxCell%20id%3D%223%22%20value%3D%22%22%20style%3D%22shape%3Dmodule%3BjettyWidth%3D8%3BjettyHeight%3D4%3B%22%20vertex%3D%221%22%20parent%3D%222%22%3E%3CmxGeometry%20x%3D%221%22%20width%3D%2220%22%20height%3D%2220%22%20relative%3D%221%22%20as%3D%22geometry%22%3E%3CmxPoint%20x%3D%22-27%22%20y%3D%227%22%20as%3D%22offset%22%2F%3E%3C%2FmxGeometry%3E%3C%2FmxCell%3E%3C%2Froot%3E%3C%2FmxGraphModel%3E&lt;/span&gt;" style="html=1;dropTarget=0;whiteSpace=wrap;" vertex="1" parent="1">
          <mxGeometry x="535" y="602" width="180" height="90" as="geometry" />
        </mxCell>
        <mxCell id="UDQxO6hxX1jXAXQNm1rs-10" value="" style="shape=module;jettyWidth=8;jettyHeight=4;" vertex="1" parent="UDQxO6hxX1jXAXQNm1rs-9">
          <mxGeometry x="1" width="20" height="20" relative="1" as="geometry">
            <mxPoint x="-27" y="7" as="offset" />
          </mxGeometry>
        </mxCell>
        <mxCell id="UDQxO6hxX1jXAXQNm1rs-11" value="«component»&lt;br&gt;&lt;b&gt;File system Module&lt;/b&gt;" style="html=1;dropTarget=0;whiteSpace=wrap;" vertex="1" parent="1">
          <mxGeometry x="80" y="602" width="180" height="90" as="geometry" />
        </mxCell>
        <mxCell id="UDQxO6hxX1jXAXQNm1rs-12" value="" style="shape=module;jettyWidth=8;jettyHeight=4;" vertex="1" parent="UDQxO6hxX1jXAXQNm1rs-11">
          <mxGeometry x="1" width="20" height="20" relative="1" as="geometry">
            <mxPoint x="-27" y="7" as="offset" />
          </mxGeometry>
        </mxCell>
        <mxCell id="UDQxO6hxX1jXAXQNm1rs-13" value="«component»&lt;br&gt;&lt;b&gt;Vite Rebuild&lt;/b&gt;" style="html=1;dropTarget=0;whiteSpace=wrap;" vertex="1" parent="1">
          <mxGeometry x="80" y="401" width="180" height="90" as="geometry" />
        </mxCell>
        <mxCell id="UDQxO6hxX1jXAXQNm1rs-14" value="" style="shape=module;jettyWidth=8;jettyHeight=4;" vertex="1" parent="UDQxO6hxX1jXAXQNm1rs-13">
          <mxGeometry x="1" width="20" height="20" relative="1" as="geometry">
            <mxPoint x="-27" y="7" as="offset" />
          </mxGeometry>
        </mxCell>
        <mxCell id="UDQxO6hxX1jXAXQNm1rs-15" value="" style="rounded=0;orthogonalLoop=1;jettySize=auto;html=1;endArrow=halfCircle;endFill=0;endSize=6;strokeWidth=1;sketch=0;exitX=1;exitY=0.5;exitDx=0;exitDy=0;" edge="1" target="UDQxO6hxX1jXAXQNm1rs-17" parent="1" source="UDQxO6hxX1jXAXQNm1rs-3">
          <mxGeometry relative="1" as="geometry">
            <mxPoint x="280" y="245" as="sourcePoint" />
          </mxGeometry>
        </mxCell>
        <mxCell id="UDQxO6hxX1jXAXQNm1rs-16" value="" style="rounded=0;orthogonalLoop=1;jettySize=auto;html=1;endArrow=oval;endFill=0;sketch=0;sourcePerimeterSpacing=0;targetPerimeterSpacing=0;endSize=10;exitX=0;exitY=0.5;exitDx=0;exitDy=0;" edge="1" target="UDQxO6hxX1jXAXQNm1rs-17" parent="1" source="UDQxO6hxX1jXAXQNm1rs-5">
          <mxGeometry relative="1" as="geometry">
            <mxPoint x="400" y="310" as="sourcePoint" />
          </mxGeometry>
        </mxCell>
        <mxCell id="UDQxO6hxX1jXAXQNm1rs-17" value="&lt;div&gt;&lt;br&gt;&lt;/div&gt;&lt;div&gt;&lt;br&gt;&lt;/div&gt;&lt;div&gt;&lt;br&gt;&lt;/div&gt;&lt;div&gt;send prompts&lt;/div&gt;" style="ellipse;whiteSpace=wrap;html=1;align=center;aspect=fixed;fillColor=none;strokeColor=none;resizable=0;perimeter=centerPerimeter;rotatable=0;allowArrows=0;points=[];outlineConnect=1;" vertex="1" parent="1">
          <mxGeometry x="380" y="266" width="10" height="10" as="geometry" />
        </mxCell>
        <mxCell id="UDQxO6hxX1jXAXQNm1rs-18" value="" style="rounded=0;orthogonalLoop=1;jettySize=auto;html=1;endArrow=halfCircle;endFill=0;endSize=6;strokeWidth=1;sketch=0;exitX=0.5;exitY=1;exitDx=0;exitDy=0;" edge="1" parent="1" source="UDQxO6hxX1jXAXQNm1rs-5">
          <mxGeometry relative="1" as="geometry">
            <mxPoint x="440" y="385" as="sourcePoint" />
            <mxPoint x="626" y="355" as="targetPoint" />
          </mxGeometry>
        </mxCell>
        <mxCell id="UDQxO6hxX1jXAXQNm1rs-19" value="" style="rounded=0;orthogonalLoop=1;jettySize=auto;html=1;endArrow=oval;endFill=0;sketch=0;sourcePerimeterSpacing=0;targetPerimeterSpacing=0;endSize=10;exitX=0.5;exitY=0;exitDx=0;exitDy=0;" edge="1" parent="1" source="UDQxO6hxX1jXAXQNm1rs-7">
          <mxGeometry relative="1" as="geometry">
            <mxPoint x="570" y="355" as="sourcePoint" />
            <mxPoint x="626" y="355" as="targetPoint" />
          </mxGeometry>
        </mxCell>
        <mxCell id="UDQxO6hxX1jXAXQNm1rs-21" value="process and receive code" style="text;html=1;align=center;verticalAlign=middle;whiteSpace=wrap;rounded=0;" vertex="1" parent="1">
          <mxGeometry x="630" y="340" width="100" height="30" as="geometry" />
        </mxCell>
        <mxCell id="UDQxO6hxX1jXAXQNm1rs-22" value="" style="rounded=0;orthogonalLoop=1;jettySize=auto;html=1;endArrow=halfCircle;endFill=0;endSize=6;strokeWidth=1;sketch=0;exitX=0.5;exitY=1;exitDx=0;exitDy=0;" edge="1" target="UDQxO6hxX1jXAXQNm1rs-24" parent="1" source="UDQxO6hxX1jXAXQNm1rs-7">
          <mxGeometry relative="1" as="geometry">
            <mxPoint x="815" y="653" as="sourcePoint" />
          </mxGeometry>
        </mxCell>
        <mxCell id="UDQxO6hxX1jXAXQNm1rs-23" value="" style="rounded=0;orthogonalLoop=1;jettySize=auto;html=1;endArrow=oval;endFill=0;sketch=0;sourcePerimeterSpacing=0;targetPerimeterSpacing=0;endSize=10;exitX=0.5;exitY=0;exitDx=0;exitDy=0;" edge="1" target="UDQxO6hxX1jXAXQNm1rs-24" parent="1" source="UDQxO6hxX1jXAXQNm1rs-9">
          <mxGeometry relative="1" as="geometry">
            <mxPoint x="560" y="570" as="sourcePoint" />
          </mxGeometry>
        </mxCell>
        <mxCell id="UDQxO6hxX1jXAXQNm1rs-24" value="" style="ellipse;whiteSpace=wrap;html=1;align=center;aspect=fixed;fillColor=none;strokeColor=none;resizable=0;perimeter=centerPerimeter;rotatable=0;allowArrows=0;points=[];outlineConnect=1;" vertex="1" parent="1">
          <mxGeometry x="620" y="560" width="10" height="10" as="geometry" />
        </mxCell>
        <mxCell id="UDQxO6hxX1jXAXQNm1rs-25" value="handle code" style="text;html=1;align=center;verticalAlign=middle;whiteSpace=wrap;rounded=0;" vertex="1" parent="1">
          <mxGeometry x="630" y="550" width="100" height="30" as="geometry" />
        </mxCell>
        <mxCell id="UDQxO6hxX1jXAXQNm1rs-26" value="" style="rounded=0;orthogonalLoop=1;jettySize=auto;html=1;endArrow=halfCircle;endFill=0;endSize=6;strokeWidth=1;sketch=0;exitX=0;exitY=0.5;exitDx=0;exitDy=0;" edge="1" target="UDQxO6hxX1jXAXQNm1rs-28" parent="1" source="UDQxO6hxX1jXAXQNm1rs-9">
          <mxGeometry relative="1" as="geometry">
            <mxPoint x="440" y="515" as="sourcePoint" />
          </mxGeometry>
        </mxCell>
        <mxCell id="UDQxO6hxX1jXAXQNm1rs-27" value="" style="rounded=0;orthogonalLoop=1;jettySize=auto;html=1;endArrow=oval;endFill=0;sketch=0;sourcePerimeterSpacing=0;targetPerimeterSpacing=0;endSize=10;exitX=1;exitY=0.5;exitDx=0;exitDy=0;" edge="1" target="UDQxO6hxX1jXAXQNm1rs-28" parent="1" source="UDQxO6hxX1jXAXQNm1rs-11">
          <mxGeometry relative="1" as="geometry">
            <mxPoint x="400" y="515" as="sourcePoint" />
          </mxGeometry>
        </mxCell>
        <mxCell id="UDQxO6hxX1jXAXQNm1rs-28" value="&lt;div&gt;&lt;br&gt;&lt;/div&gt;&lt;div&gt;&lt;br&gt;&lt;/div&gt;&lt;div&gt;&lt;br&gt;&lt;/div&gt;&lt;div&gt;write file&lt;/div&gt;" style="ellipse;whiteSpace=wrap;html=1;align=center;aspect=fixed;fillColor=none;strokeColor=none;resizable=0;perimeter=centerPerimeter;rotatable=0;allowArrows=0;points=[];outlineConnect=1;" vertex="1" parent="1">
          <mxGeometry x="409" y="642" width="10" height="10" as="geometry" />
        </mxCell>
        <mxCell id="UDQxO6hxX1jXAXQNm1rs-32" value="" style="rounded=0;orthogonalLoop=1;jettySize=auto;html=1;endArrow=halfCircle;endFill=0;endSize=6;strokeWidth=1;sketch=0;exitX=0.5;exitY=0;exitDx=0;exitDy=0;" edge="1" target="UDQxO6hxX1jXAXQNm1rs-34" parent="1" source="UDQxO6hxX1jXAXQNm1rs-11">
          <mxGeometry relative="1" as="geometry">
            <mxPoint x="440" y="455" as="sourcePoint" />
          </mxGeometry>
        </mxCell>
        <mxCell id="UDQxO6hxX1jXAXQNm1rs-33" value="" style="rounded=0;orthogonalLoop=1;jettySize=auto;html=1;endArrow=oval;endFill=0;sketch=0;sourcePerimeterSpacing=0;targetPerimeterSpacing=0;endSize=10;exitX=0.5;exitY=1;exitDx=0;exitDy=0;" edge="1" target="UDQxO6hxX1jXAXQNm1rs-34" parent="1" source="UDQxO6hxX1jXAXQNm1rs-13">
          <mxGeometry relative="1" as="geometry">
            <mxPoint x="400" y="455" as="sourcePoint" />
          </mxGeometry>
        </mxCell>
        <mxCell id="UDQxO6hxX1jXAXQNm1rs-34" value="" style="ellipse;whiteSpace=wrap;html=1;align=center;aspect=fixed;fillColor=none;strokeColor=none;resizable=0;perimeter=centerPerimeter;rotatable=0;allowArrows=0;points=[];outlineConnect=1;" vertex="1" parent="1">
          <mxGeometry x="165" y="550" width="10" height="10" as="geometry" />
        </mxCell>
        <mxCell id="UDQxO6hxX1jXAXQNm1rs-35" value="rebuild trigger" style="text;html=1;align=center;verticalAlign=middle;whiteSpace=wrap;rounded=0;" vertex="1" parent="1">
          <mxGeometry x="175" y="540" width="100" height="30" as="geometry" />
        </mxCell>
      </root>
    </mxGraphModel>
  </diagram>
</mxfile>
